<?xml version="1.0" standalone="no"?>
<!DOCTYPE svg PUBLIC "-//W3C//DTD SVG 20010904//EN"
 "http://www.w3.org/TR/2001/REC-SVG-20010904/DTD/svg10.dtd">
<svg version="1.0" xmlns="http://www.w3.org/2000/svg"
 width="1080.000000pt" height="1080.000000pt" viewBox="0 0 1080.000000 1080.000000"
 preserveAspectRatio="xMidYMid meet">

<g transform="translate(0.000000,1080.000000) scale(0.100000,-0.100000)"
fill="#000000" stroke="none">
<path d="M0 5400 l0 -5400 5400 0 5400 0 0 5400 0 5400 -5400 0 -5400 0 0
-5400z m3058 701 c171 -80 267 -273 228 -458 -17 -81 -43 -137 -86 -187 l-30
-34 53 -55 c90 -92 133 -206 125 -332 -9 -145 -100 -275 -236 -342 l-57 -28
-462 -3 -463 -3 0 741 0 741 428 -3 427 -3 73 -34z m982 -521 l0 -560 380 0
380 0 0 -180 0 -180 -580 0 -580 0 0 740 0 740 200 0 200 0 0 -560z m1450
-180 l0 -740 -200 0 -200 0 0 740 0 740 200 0 200 0 0 -740z m680 338 l0 -403
84 130 c159 245 232 360 332 517 l99 157 198 0 197 1 0 -740 0 -740 -195 0
-195 0 0 390 c0 350 -5 425 -23 377 -3 -8 -38 -65 -79 -128 -41 -63 -150 -232
-243 -376 l-170 -263 -197 0 -198 0 0 740 0 740 195 0 195 0 0 -402z m1600
157 c0 -135 3 -245 8 -244 4 0 95 110 202 244 l195 244 248 0 c168 1 246 -2
242 -9 -4 -6 -52 -63 -107 -128 -56 -64 -135 -157 -177 -206 -42 -49 -127
-148 -189 -220 -62 -72 -110 -136 -108 -143 3 -6 133 -183 290 -392 l286 -381
-243 1 -242 0 -195 244 c-107 134 -198 244 -202 244 -5 1 -8 -109 -8 -244 l0
-245 -200 0 -200 0 0 740 0 740 200 0 200 0 0 -245z"/>
<path d="M2510 5695 l0 -156 154 3 c138 3 158 5 182 24 51 38 69 71 69 129 0
58 -18 91 -69 129 -24 19 -44 21 -182 24 l-154 3 0 -156z"/>
<path d="M2510 5120 l0 -150 159 0 c148 0 160 1 192 23 93 61 91 200 -3 257
-29 18 -51 20 -190 20 l-158 0 0 -150z"/>
</g>
</svg>
