<?xml version="1.0" standalone="no"?>
<!DOCTYPE svg PUBLIC "-//W3C//DTD SVG 20010904//EN"
 "http://www.w3.org/TR/2001/REC-SVG-20010904/DTD/svg10.dtd">
<svg version="1.0" xmlns="http://www.w3.org/2000/svg"
 width="736.000000pt" height="245.000000pt" viewBox="0 0 736.000000 245.000000"
 preserveAspectRatio="xMidYMid meet">
<metadata>
Created by potrace 1.16, written by Peter Selinger 2001-2019
</metadata>
<g transform="translate(0.000000,245.000000) scale(0.100000,-0.100000)"
fill="#000000" stroke="none">
<path d="M4190 2020 l-115 -5 -3 -72 c-2 -60 0 -73 13 -73 8 0 15 5 15 10 0
15 177 13 183 -2 3 -10 8 -10 16 -2 8 7 11 36 9 80 l-3 69 -115 -5z"/>
<path d="M4460 2000 c0 -16 -7 -20 -34 -20 -19 0 -38 -4 -41 -10 -4 -6 10 -10
34 -10 57 0 52 -18 -6 -22 -73 -5 -68 -28 7 -28 38 0 59 -4 55 -10 -3 -5 -15
-10 -26 -10 -10 0 -19 -4 -19 -10 0 -5 -9 -10 -20 -10 -11 0 -20 -4 -20 -10 0
-5 -6 -10 -14 -10 -7 0 -19 -6 -25 -13 -14 -18 18 -20 39 -2 8 7 25 15 38 18
17 4 22 1 22 -14 0 -17 8 -19 59 -19 54 0 59 -2 54 -20 -4 -17 -14 -20 -54
-20 -27 0 -49 -4 -49 -10 0 -15 106 -12 118 3 10 12 15 39 13 65 -1 8 -19 12
-57 12 -34 0 -53 4 -49 10 3 6 37 10 76 10 39 0 69 4 69 10 0 6 -25 10 -55 10
-76 0 -70 18 8 22 35 2 61 7 59 13 -2 9 -9 11 -55 14 -14 1 -10 7 15 31 25 22
29 29 16 30 -10 0 -18 -4 -18 -10 0 -5 -6 -10 -14 -10 -8 0 -17 -6 -20 -12 -5
-10 -7 -10 -12 0 -3 6 -19 12 -35 12 -22 0 -29 5 -29 20 0 11 -7 20 -15 20 -8
0 -15 -9 -15 -20z"/>
<path d="M2410 1530 c0 -17 -7 -20 -45 -20 -25 0 -45 -4 -45 -10 0 -5 18 -10
40 -10 28 0 43 -5 47 -16 7 -20 -13 -34 -49 -34 -16 0 -28 -4 -28 -10 0 -5 18
-10 40 -10 50 0 53 -18 4 -22 -43 -4 -60 -24 -50 -61 5 -23 12 -27 41 -27 24
0 39 6 47 20 7 11 21 20 31 20 10 0 15 -4 12 -10 -3 -5 3 -10 15 -10 12 0 18
-4 15 -10 -3 -5 -1 -10 4 -10 6 0 11 4 11 9 0 14 -45 61 -58 61 -8 0 -22 22
-22 36 0 2 11 4 24 4 14 0 28 5 31 10 4 6 -7 10 -25 10 -27 0 -31 3 -28 23 2
17 11 23 36 25 17 2 32 9 32 16 0 8 -12 11 -34 8 -31 -4 -34 -2 -29 17 3 12 1
21 -6 21 -6 0 -11 -9 -11 -20z"/>
<path d="M3030 1541 c0 -4 -16 -33 -35 -65 -19 -32 -35 -66 -34 -75 0 -10 2
-11 6 -3 2 6 10 12 17 12 8 0 11 -19 8 -65 l-4 -65 56 0 c31 0 64 4 74 9 9 5
32 16 50 23 17 7 32 16 32 19 0 4 11 17 25 30 25 25 33 49 15 49 -5 0 -10 20
-10 45 l0 45 -39 0 c-22 0 -43 5 -46 10 -4 6 15 10 49 10 31 0 56 5 56 10 0
11 3 11 -127 15 -51 1 -93 0 -93 -4z"/>
<path d="M3310 1530 c0 -5 11 -10 25 -10 14 0 25 -4 25 -10 0 -5 9 -10 20 -10
11 0 20 5 20 10 0 6 14 10 30 10 17 0 30 -4 30 -10 0 -5 -13 -10 -30 -10 -16
0 -30 -4 -30 -10 0 -5 -25 -10 -55 -12 -56 -3 -78 -23 -26 -23 46 0 48 -14 2
-21 -52 -8 -53 -24 -1 -24 22 0 40 5 40 10 0 6 7 10 16 10 8 0 12 -4 9 -10 -3
-5 1 -10 9 -10 9 0 16 -4 16 -10 0 -6 -28 -10 -65 -10 -37 0 -65 -4 -65 -10 0
-5 20 -10 45 -10 25 0 45 -4 45 -10 0 -5 -11 -10 -25 -10 -14 0 -25 -4 -25 -9
0 -5 -10 -11 -22 -13 -32 -5 -35 -28 -4 -28 14 0 26 5 26 10 0 6 9 10 21 10
11 0 27 7 35 15 25 24 34 17 28 -21 -4 -27 -2 -35 8 -32 7 3 15 17 16 33 5 39
28 54 85 55 26 0 47 5 47 10 0 6 -29 10 -66 10 -49 0 -64 3 -60 13 3 6 9 20
12 30 4 12 17 17 42 17 28 0 33 -3 24 -12 -16 -16 -15 -28 1 -28 13 0 37 40
37 60 0 5 -21 10 -47 12 l-48 3 38 19 c20 10 37 22 37 27 0 5 -49 9 -110 9
-67 0 -110 -4 -110 -10z"/>
<path d="M3580 1530 c0 -6 30 -10 70 -10 39 0 70 -3 70 -6 0 -22 -53 -91 -102
-131 -13 -10 -32 -29 -42 -41 -15 -18 -16 -22 -4 -22 8 0 40 24 71 54 l57 54
0 -74 c0 -60 3 -74 16 -74 13 0 15 15 13 93 -2 125 11 147 87 147 30 0 54 5
54 10 0 6 -55 10 -145 10 -90 0 -145 -4 -145 -10z"/>
<path d="M3897 1458 c-4 -46 -7 -100 -7 -120 l0 -38 60 0 c33 0 60 4 60 10 0
6 -5 10 -10 10 -6 0 -9 14 -8 30 3 36 5 36 29 8 21 -23 24 -35 10 -40 -13 -5
-18 -33 -6 -37 6 -2 17 9 25 25 8 16 19 32 23 35 5 3 8 9 8 13 -1 3 -1 22 -1
41 0 29 4 35 21 35 19 0 20 -5 17 -80 -2 -59 0 -80 10 -80 8 0 12 15 12 43 0
77 11 117 31 117 11 0 19 5 19 10 0 6 -25 10 -55 10 -48 0 -55 2 -55 20 0 14
7 20 24 20 13 0 29 7 36 15 7 8 19 15 26 15 8 0 14 5 14 10 0 6 -9 10 -20 10
-11 0 -20 -4 -20 -10 0 -5 -23 -10 -51 -10 -40 0 -55 -5 -70 -22 l-18 -23 -1
33 c0 17 -4 32 -10 32 -5 0 -10 -9 -10 -19 0 -26 -18 -37 -26 -17 -3 9 -12 16
-20 16 -8 0 -14 5 -14 10 0 6 -4 10 -9 10 -4 0 -11 -37 -14 -82z"/>
<path d="M3300 1050 c0 -5 -25 -10 -55 -10 -30 0 -55 -4 -55 -10 0 -5 25 -10
55 -10 30 0 55 -4 55 -10 0 -6 -29 -10 -66 -10 -48 0 -65 -3 -62 -12 3 -8 28
-14 67 -16 76 -4 72 -22 -5 -22 -34 0 -53 -4 -49 -10 3 -5 31 -10 61 -10 30 0
54 -4 54 -10 0 -6 -28 -10 -64 -10 -36 0 -68 -4 -71 -10 -3 -5 3 -10 15 -10
18 0 20 -5 16 -45 l-4 -45 109 0 109 0 1 33 c1 17 1 35 1 38 -1 4 10 10 24 13
45 12 14 26 -57 26 -44 0 -68 4 -64 10 3 6 28 10 56 10 42 0 49 3 49 20 0 13
7 20 20 20 23 0 27 15 5 24 -8 3 -15 15 -15 26 0 18 -6 20 -55 20 -30 0 -55 5
-55 10 0 6 -4 10 -10 10 -5 0 -10 -4 -10 -10z"/>
<path d="M3893 1040 c-28 -13 -32 -20 -35 -64 -2 -34 1 -50 11 -54 7 -3 16 0
20 7 4 7 21 14 38 16 29 4 30 3 19 -20 -8 -18 -21 -25 -46 -27 l-35 -3 -3 -62
-3 -63 95 0 94 0 4 55 c1 30 2 60 0 65 -2 6 -24 10 -48 10 -46 0 -54 9 -29 30
7 6 17 32 21 56 5 38 9 44 31 44 19 0 24 -4 19 -16 -3 -9 -6 -26 -6 -39 0 -15
-7 -26 -20 -30 -25 -8 -26 -25 -1 -25 29 0 42 24 44 82 l2 53 -70 0 c-42 0
-83 -6 -102 -15z"/>
<path d="M6140 1015 c-5 -14 -16 -25 -25 -25 -8 0 -15 -4 -15 -10 0 -5 9 -10
20 -10 27 0 25 -18 -2 -22 -32 -4 -29 -22 5 -26 24 -3 27 -7 27 -43 0 -44 -14
-54 -18 -12 -4 51 -17 46 -26 -10 -3 -21 -11 -47 -16 -57 -14 -25 -13 -30 5
-24 8 4 15 12 15 20 0 8 9 14 21 14 11 0 17 -4 14 -10 -3 -5 -1 -10 5 -10 6 0
17 -6 25 -13 9 -10 42 -14 114 -13 138 1 137 20 -1 24 -76 2 -108 6 -109 15 0
7 -2 20 -4 30 -4 20 -1 21 25 5 16 -10 24 -10 40 0 27 16 30 15 30 -8 0 -15 7
-20 25 -20 14 0 25 5 25 10 0 6 7 10 15 10 8 0 15 6 16 13 0 6 5 2 11 -10 6
-13 17 -23 25 -23 16 0 16 3 -2 46 -8 20 -12 40 -9 45 3 5 7 22 10 37 2 15 6
37 9 50 5 20 2 22 -40 22 -33 0 -45 4 -45 15 0 12 -13 15 -55 15 -42 0 -55 -3
-55 -15 0 -8 5 -15 10 -15 6 0 10 -5 10 -11 0 -6 -12 -9 -27 -7 -23 2 -27 7
-25 26 4 30 -16 28 -28 -3z"/>
<path d="M6600 1010 c0 -16 -7 -20 -30 -20 -20 0 -30 -5 -30 -15 0 -10 10 -15
30 -15 23 0 30 -4 30 -20 0 -17 -7 -20 -45 -20 l-44 0 5 45 4 45 -45 0 -45 0
0 -100 c0 -60 4 -100 10 -100 6 0 10 5 10 10 0 6 14 10 30 10 23 0 30 5 31 20
1 11 2 26 3 33 1 14 40 22 63 13 12 -5 6 -16 -31 -49 -25 -24 -46 -48 -46 -55
0 -19 8 -15 44 23 19 19 39 35 45 35 6 0 11 -19 11 -45 0 -25 5 -45 10 -45 9
0 14 14 11 33 0 4 3 7 8 7 4 0 6 11 3 25 -4 25 13 36 20 13 2 -6 9 -8 16 -4 8
5 6 13 -8 28 -24 26 -21 29 21 31 53 3 49 27 -5 27 -39 0 -46 3 -46 19 0 16 8
20 37 23 52 4 56 28 4 28 -34 0 -41 3 -41 20 0 11 -7 20 -15 20 -8 0 -15 -9
-15 -20z"/>
<path d="M6829 1020 c-1 -5 -3 -19 -4 -30 -1 -11 -3 -31 -4 -44 0 -13 -12 -40
-26 -60 -29 -43 -34 -69 -6 -38 27 31 31 28 31 -25 0 -29 4 -43 8 -35 5 7 8
33 8 57 -1 25 2 45 7 45 4 0 7 6 7 13 0 8 21 24 46 37 52 27 77 20 82 -23 3
-23 -1 -26 -34 -29 -43 -4 -60 -24 -50 -61 5 -21 13 -27 32 -27 14 0 32 7 40
15 9 8 20 15 25 15 5 0 12 -7 15 -15 4 -8 10 -15 16 -15 11 0 -1 42 -15 52 -6
3 -10 21 -9 40 1 18 -3 45 -9 61 -9 22 -18 27 -45 27 -19 0 -34 -3 -34 -7 0
-10 -52 -34 -59 -28 -3 3 -5 23 -4 45 0 22 -3 40 -8 40 -5 0 -10 -4 -10 -10z"/>
<path d="M2746 574 c-5 -12 -15 -14 -51 -8 -40 5 -45 4 -46 -12 -3 -88 -22
-187 -42 -211 -7 -9 -5 -13 5 -13 21 0 39 46 45 113 l6 57 98 0 c83 0 100 -3
108 -17 6 -10 11 -13 12 -8 0 6 2 27 5 48 l4 37 -49 0 c-31 0 -53 5 -61 15
-16 19 -26 19 -34 -1z"/>
<path d="M3247 573 c-3 -5 -5 -55 -6 -113 -1 -58 -4 -120 -7 -137 -3 -20 -1
-33 5 -33 6 0 12 5 12 10 1 6 3 19 4 30 1 11 3 47 4 80 l1 60 50 0 50 0 0 55
0 55 -54 0 c-30 0 -57 -3 -59 -7z"/>
<path d="M3398 568 c-2 -7 -6 -32 -7 -55 -3 -43 -2 -43 33 -44 20 -1 41 -2 48
-3 8 -1 11 -23 9 -71 -3 -79 -5 -85 -32 -85 -10 0 -19 -4 -19 -10 0 -15 46
-12 59 4 7 8 14 70 18 145 l6 131 -55 0 c-36 0 -57 -5 -60 -12z"/>
</g>
</svg>
